<svg width="120" height="40" viewBox="0 0 120 40" fill="none" xmlns="http://www.w3.org/2000/svg">
<rect x="0.5" y="0.5" width="119" height="39" fill="white" stroke="#E2E2E2"/>
<path d="M17.6758 20.5312V24H17.0078V15.4688H19.4863C20.2402 15.4688 20.834 15.6953 21.2676 16.1484C21.7012 16.6016 21.918 17.2246 21.918 18.0176C21.918 18.8262 21.707 19.4473 21.2852 19.8809C20.8672 20.3145 20.2637 20.5312 19.4746 20.5312H17.6758ZM17.6758 19.9043H19.4863C20.0488 19.9043 20.4824 19.7422 20.7871 19.418C21.0957 19.0898 21.25 18.627 21.25 18.0293C21.25 17.4316 21.0938 16.9609 20.7812 16.6172C20.4727 16.2734 20.043 16.1016 19.4922 16.1016H17.6758V19.9043ZM28.5309 20.4492H26.5387V24H25.8648V15.4688H28.2027C28.9801 15.4688 29.5816 15.6914 30.0074 16.1367C30.4371 16.5781 30.652 17.1934 30.652 17.9824C30.652 18.5332 30.5191 19.0176 30.2535 19.4355C29.9879 19.8496 29.6305 20.1367 29.1812 20.2969L30.9566 23.9238V24H30.2418L28.5309 20.4492ZM26.5387 19.8281H28.3199C28.8238 19.8281 29.2262 19.6562 29.527 19.3125C29.8277 18.9648 29.9781 18.5215 29.9781 17.9824C29.9781 17.3848 29.8219 16.9219 29.5094 16.5938C29.1969 16.2656 28.7594 16.1016 28.1969 16.1016H26.5387V19.8281ZM40.1652 20.6602C40.1652 21.7617 39.923 22.6133 39.4387 23.2148C38.9582 23.8164 38.2824 24.1172 37.4113 24.1172C36.548 24.1172 35.8703 23.8164 35.3781 23.2148C34.8898 22.6133 34.6437 21.7676 34.6398 20.6777V18.8203C34.6398 17.7227 34.884 16.8711 35.3723 16.2656C35.8605 15.6562 36.5363 15.3516 37.3996 15.3516C38.2746 15.3516 38.9543 15.6562 39.4387 16.2656C39.923 16.875 40.1652 17.7324 40.1652 18.8379V20.6602ZM39.4914 18.8086C39.4914 17.875 39.3117 17.1738 38.9523 16.7051C38.593 16.2363 38.0754 16.002 37.3996 16.002C36.7473 16.002 36.2375 16.2324 35.8703 16.6934C35.5031 17.1504 35.3156 17.8359 35.3078 18.75V20.6602C35.3078 21.5977 35.4934 22.3027 35.8645 22.7754C36.2355 23.2441 36.7512 23.4785 37.4113 23.4785C38.091 23.4785 38.6066 23.2441 38.9582 22.7754C39.3137 22.3066 39.4914 21.6016 39.4914 20.6602V18.8086ZM38.1027 13.0898H38.9523L37.5988 14.7363H36.9836L38.1027 13.0898ZM46.4324 19.0664L48.3953 15.4688H49.1922L46.8426 19.6758L49.2625 24H48.4598L46.4324 20.291L44.3992 24H43.6023L46.034 19.6758L43.6727 15.4688H44.4695L46.4324 19.0664ZM53.848 24H53.1801V15.4688H53.848V24ZM59.2715 15.4688L61.8555 22.9746L64.4512 15.4688H65.3359V24H64.668V20.3027L64.7266 16.582L62.1133 24H61.5977L58.9961 16.6172L59.0547 20.2793V24H58.3867V15.4688H59.2715ZM75.0543 20.6602C75.0543 21.7617 74.8121 22.6133 74.3277 23.2148C73.8473 23.8164 73.1715 24.1172 72.3004 24.1172C71.4371 24.1172 70.7594 23.8164 70.2672 23.2148C69.7789 22.6133 69.5328 21.7676 69.5289 20.6777V18.8203C69.5289 17.7227 69.773 16.8711 70.2613 16.2656C70.7496 15.6562 71.4254 15.3516 72.2887 15.3516C73.1637 15.3516 73.8434 15.6562 74.3277 16.2656C74.8121 16.875 75.0543 17.7324 75.0543 18.8379V20.6602ZM74.3805 18.8086C74.3805 17.875 74.2008 17.1738 73.8414 16.7051C73.482 16.2363 72.9645 16.002 72.2887 16.002C71.6363 16.002 71.1266 16.2324 70.7594 16.6934C70.3922 17.1504 70.2047 17.8359 70.1969 18.75V20.6602C70.1969 21.5977 70.3824 22.3027 70.7535 22.7754C71.1246 23.2441 71.6402 23.4785 72.3004 23.4785C72.9801 23.4785 73.4957 23.2441 73.8473 22.7754C74.2027 22.3066 74.3805 21.6016 74.3805 20.6602V18.8086Z" fill="black"/>
<path d="M106.354 20.3536C106.549 20.1583 106.549 19.8417 106.354 19.6464L103.172 16.4645C102.976 16.2692 102.66 16.2692 102.464 16.4645C102.269 16.6597 102.269 16.9763 102.464 17.1716L105.293 20L102.464 22.8284C102.269 23.0237 102.269 23.3403 102.464 23.5355C102.66 23.7308 102.976 23.7308 103.172 23.5355L106.354 20.3536ZM85 20.5L106 20.5V19.5L85 19.5V20.5Z" fill="black"/>
</svg>
