<svg width="120" height="40" viewBox="0 0 120 40" fill="none" xmlns="http://www.w3.org/2000/svg">
<rect x="0.5" y="0.5" width="119" height="39" fill="white" stroke="#E2E2E2"/>
<path d="M52.2227 22.9336L52.2402 23.0273L52.2637 22.9336L54.4902 15.4688H55.2285L52.5625 24H51.9297L49.2637 15.4688H49.9961L52.2227 22.9336ZM64.109 20.6602C64.109 21.7617 63.8668 22.6133 63.3824 23.2148C62.902 23.8164 62.2262 24.1172 61.3551 24.1172C60.4918 24.1172 59.8141 23.8164 59.3219 23.2148C58.8336 22.6133 58.5875 21.7676 58.5836 20.6777V18.8203C58.5836 17.7227 58.8277 16.8711 59.316 16.2656C59.8043 15.6562 60.4801 15.3516 61.3434 15.3516C62.2184 15.3516 62.898 15.6562 63.3824 16.2656C63.8668 16.875 64.109 17.7324 64.109 18.8379V20.6602ZM63.4352 18.8086C63.4352 17.875 63.2555 17.1738 62.8961 16.7051C62.5367 16.2363 62.0191 16.002 61.3434 16.002C60.691 16.002 60.1812 16.2324 59.8141 16.6934C59.4469 17.1504 59.2594 17.8359 59.2516 18.75V20.6602C59.2516 21.5977 59.4371 22.3027 59.8082 22.7754C60.1793 23.2441 60.6949 23.4785 61.3551 23.4785C62.0348 23.4785 62.5504 23.2441 62.902 22.7754C63.2574 22.3066 63.4352 21.6016 63.4352 20.6602V18.8086ZM68.9699 23.3789H72.4855V24H68.2961V15.4688H68.9699V23.3789ZM79.5262 16.1016H77.1004V24H76.4266V16.1016H74.0066V15.4688H79.5262V16.1016ZM86.7133 21.6152H83.5141L82.7875 24H82.0902L84.809 15.4688H85.4301L88.1488 24H87.4516L86.7133 21.6152ZM83.7074 20.9883H86.5199L85.1137 16.4121L83.7074 20.9883ZM94.4746 20.4492H92.4824V24H91.8086V15.4688H94.1465C94.9238 15.4688 95.5254 15.6914 95.9512 16.1367C96.3809 16.5781 96.5957 17.1934 96.5957 17.9824C96.5957 18.5332 96.4629 19.0176 96.1973 19.4355C95.9316 19.8496 95.5742 20.1367 95.125 20.2969L96.9004 23.9238V24H96.1855L94.4746 20.4492ZM92.4824 19.8281H94.2637C94.7676 19.8281 95.1699 19.6562 95.4707 19.3125C95.7715 18.9648 95.9219 18.5215 95.9219 17.9824C95.9219 17.3848 95.7656 16.9219 95.4531 16.5938C95.1406 16.2656 94.7031 16.1016 94.1406 16.1016H92.4824V19.8281Z" fill="black"/>
<path d="M17.6464 19.6464C17.4512 19.8417 17.4512 20.1583 17.6464 20.3536L20.8284 23.5355C21.0237 23.7308 21.3403 23.7308 21.5355 23.5355C21.7308 23.3403 21.7308 23.0237 21.5355 22.8284L18.7071 20L21.5355 17.1716C21.7308 16.9763 21.7308 16.6597 21.5355 16.4645C21.3403 16.2692 21.0237 16.2692 20.8284 16.4645L17.6464 19.6464ZM39 19.5L18 19.5L18 20.5L39 20.5L39 19.5Z" fill="black"/>
</svg>
