<svg width="9" height="14" viewBox="0 0 9 14" fill="none" xmlns="http://www.w3.org/2000/svg">
<path d="M8.61482 12.9382L6.3659 12.252L7.09912 12.0288C7.38913 11.9417 7.54781 11.6367 7.46026 11.3481C7.37271 11.0595 7.06629 10.9016 6.77628 10.9887L5.04718 11.5169V6.96461C6.73251 6.70323 8.02386 5.25476 8.02386 3.50681C8.02386 1.57371 6.4425 0 4.5 0C2.5575 0 0.976136 1.56826 0.976136 3.50136C0.976136 5.24932 2.26749 6.69778 3.95282 6.95916V11.5115L2.22372 10.9833C1.93371 10.8961 1.62728 11.0541 1.53974 11.3427C1.45219 11.6313 1.61087 11.9362 1.90088 12.0233L2.6341 12.2466L0.385177 12.9327C0.0951699 13.0198 -0.0635134 13.3248 0.024036 13.6134C0.0951699 13.8475 0.314043 14 0.549332 14C0.604051 14 0.658769 13.9946 0.708016 13.9782L4.5 12.8184L8.29198 13.9782C8.3467 13.9946 8.40142 14 8.45067 14C8.68596 14 8.89936 13.8475 8.97596 13.6134C9.06351 13.3248 8.90483 13.0198 8.61482 12.9327V12.9382ZM1.87352 3.50136C1.87352 2.05834 3.04996 0.887592 4.5 0.887592C5.95004 0.887592 7.12648 2.05834 7.12648 3.50136C7.12648 4.94438 5.95004 6.11513 4.5 6.11513C3.04996 6.11513 1.87352 4.94438 1.87352 3.50136Z" fill="black"/>
</svg>
