<svg width="13" height="13" viewBox="0 0 13 13" fill="none" xmlns="http://www.w3.org/2000/svg">
<path d="M12.754 11.6155L9.46786 8.32529C10.1186 7.43759 10.4765 6.36257 10.4765 5.23868C10.4765 3.8379 9.93149 2.51856 8.93915 1.53312C6.89754 -0.511042 3.57891 -0.511042 1.53731 1.53312C0.544971 2.5267 0 3.84605 0 5.24683C0 6.64761 0.544971 7.96695 1.53731 8.95239C2.56218 9.97854 3.89614 10.4835 5.23823 10.4835C6.32004 10.4835 7.40185 10.1414 8.32098 9.47361L11.6071 12.7638C11.7697 12.9267 11.9731 13 12.1846 13C12.3961 13 12.5994 12.9186 12.7621 12.7638C13.0793 12.4462 13.0793 11.9331 12.7621 11.6155H12.754ZM2.48084 8.00767C1.74065 7.26656 1.33396 6.28927 1.33396 5.24683C1.33396 4.20439 1.74065 3.21895 2.48084 2.47784C3.24542 1.71229 4.24589 1.33767 5.23823 1.33767C6.23057 1.33767 7.23917 1.72044 7.99562 2.47784C8.73581 3.21895 9.1425 4.19624 9.1425 5.24683C9.1425 6.29742 8.73581 7.27471 7.99562 8.00767C6.47458 9.53062 3.99374 9.53062 2.4727 8.00767H2.48084Z" fill="white"/>
</svg>
