<svg width="11" height="13" viewBox="0 0 11 13" fill="none" xmlns="http://www.w3.org/2000/svg">
<path fill-rule="evenodd" clip-rule="evenodd" d="M2.12694 5.43047C2.12694 7.34093 3.59018 8.89779 5.38576 8.89779V8.9027C7.18135 8.9027 8.64459 7.34584 8.64459 5.43538V3.46598C8.64459 1.55551 7.18135 -0.00134277 5.38576 -0.00134277C3.59018 -0.00134277 2.12694 1.55551 2.12694 3.46107V5.43047ZM3.00396 3.46598C3.00396 2.06628 4.07485 0.931789 5.38576 0.931789C6.70129 0.931789 7.76757 2.07119 7.76757 3.46598V5.43538C7.76757 6.83508 6.70129 7.96957 5.38576 7.96957C4.07023 7.96957 3.00396 6.83017 3.00396 5.43538V3.46598ZM0.017447 12.6303C0.0728377 12.8464 0.257474 12.9888 0.460573 12.9888L0.465189 12.9987C0.506732 12.9987 0.548275 12.9937 0.589818 12.979L5.40881 11.54L10.4171 12.979C10.6663 13.0478 10.9202 12.8906 10.9848 12.6303C11.0494 12.3651 10.9017 12.095 10.6571 12.0262L5.52421 10.5529C5.44574 10.5283 5.35804 10.5283 5.27957 10.5529L0.335944 12.0262C0.0913013 12.0999 -0.0517914 12.37 0.017447 12.6303Z" fill="black"/>
</svg>
