<svg width="15" height="13" viewBox="0 0 15 13" fill="none" xmlns="http://www.w3.org/2000/svg">
<path d="M12.4334 0.376294C10.3594 -0.559876 8.26968 0.493315 7.49977 0.9614C6.72463 0.487996 4.64537 -0.559876 2.57135 0.376294C1.23581 0.977358 0.277357 2.26991 0.0573852 3.75927C-0.27781 6.07842 0.696352 9.54651 7.26933 12.8816L7.49977 12.9986L7.73022 12.8816C14.298 9.54651 15.2774 6.07842 14.9369 3.75927C14.7222 2.27523 13.7585 0.977358 12.4282 0.376294H12.4334ZM7.49977 11.8071C1.39293 8.63161 0.858712 5.50395 1.0944 3.91353C1.25676 2.78587 1.98476 1.80183 2.99558 1.3497C3.44077 1.14757 3.89642 1.0731 4.33637 1.0731C5.86046 1.0731 7.18029 2.02523 7.196 2.03055L7.49977 2.25927L7.80354 2.03587C7.80354 2.03587 10.0033 0.450762 12.004 1.35502C13.0096 1.81246 13.7376 2.79119 13.9052 3.91885C14.1356 5.50927 13.6014 8.63693 7.49454 11.8071H7.49977Z" fill="black"/>
</svg>
